# xmcd CD database file
#
# Track frame offsets:
#	150
#	13471
#	29215
#	44369
#	61519
#	77414
#	91414
#	117193
#	130925
#	152105
#	175840
#	193766
#
# Disc length: 2747 seconds
#
# Revision: 0
# Processed by: cddbd v1.5.1PL2 Copyright (c) Steve Scherf et al.
# Submitted via: CDex 1.51
#
DISCID=9c0ab90c
DTITLE=Vic Shepherd Harmonic Combo - Chromatic Cocktails
DYEAR=2004
DGENRE=Jazz
TTITLE0=Que Rico el Mambo
TTITLE1=Days of Wine and Roses
TTITLE2=Lonesome Road
TTITLE3=At Last
TTITLE4=Oye Como Va
TTITLE5=Boll Weevil
TTITLE6=September Song
TTITLE7=Sway
TTITLE8=Laura
TTITLE9=Black Orpheus
TTITLE10=How High the Moon
TTITLE11=Chromania
EXTD=YEAR: 2004
EXTT0=
EXTT1=
EXTT2=
EXTT3=
EXTT4=
EXTT5=
EXTT6=
EXTT7=
EXTT8=
EXTT9=
EXTT10=
EXTT11=
PLAYORDER=
